<svg width="32" height="32" viewBox="0 0 32 32" fill="none" xmlns="http://www.w3.org/2000/svg">
  <circle cx="16" cy="16" r="16" fill="#0284C7"/>
  <path d="M8 20C8 20 10 18 12 18C14 18 16 20 18 20C20 20 22 18 24 18" stroke="white" stroke-width="2" stroke-linecap="round"/>
  <path d="M8 16C8 16 10 14 12 14C14 14 16 16 18 16C20 16 22 14 24 14" stroke="white" stroke-width="2" stroke-linecap="round"/>
  <path d="M8 12C8 12 10 10 12 10C14 10 16 12 18 12C20 12 22 10 24 10" stroke="white" stroke-width="2" stroke-linecap="round"/>
</svg>